<svg width="1104.000000" height="206.000000" viewBox="0 0 1104 206" fill="none" xmlns="http://www.w3.org/2000/svg" xmlns:xlink="http://www.w3.org/1999/xlink">
	<desc>
			Created with Pixso.
	</desc>
	<defs>
		<linearGradient x1="1235.483032" y1="-84.633301" x2="991.044739" y2="-170.082947" id="paint_linear_0_625_0" gradientUnits="userSpaceOnUse">
			<stop stop-color="#FFFFFF" stop-opacity="0.000000"/>
			<stop offset="1.000000" stop-color="#FFFFFF" stop-opacity="0.239216"/>
		</linearGradient>
	</defs>
	<rect id="Mask" width="1104.000000" height="206.000000" fill="#5D5DFF" fill-opacity="1.000000"/>
	<rect id="Mask" width="1104.000000" height="206.000000" stroke="#979797" stroke-opacity="0" stroke-width="0.000000"/>
	<mask id="mask0_621" mask-type="alpha" maskUnits="userSpaceOnUse" x="0.000000" y="0.000000" width="1104.000000" height="206.000000">
		<rect id="Mask" width="1104.000000" height="206.000000" fill="#5D5DFF" fill-opacity="1.000000"/>
		<rect id="Mask" width="1104.000000" height="206.000000" stroke="#979797" stroke-opacity="0" stroke-width="0.000000"/>
	</mask>
	<g mask="url(#mask0_621)">
		<path id="Fill 1" d="M1286.81 -54.5818C1286.34 -51.491 1284.95 -48.4829 1282.92 -45.5579C1283.76 -47.406 1284.35 -49.2898 1284.62 -51.2139C1284.74 -52.0549 1284.8 -52.8958 1284.8 -53.7358C1284.8 -58.177 1283.12 -62.5969 1279.78 -66.9099C1276.34 -71.3298 1270.87 -72.885 1263.96 -72.3318C1272.41 -74.063 1278.93 -73.2529 1282.43 -68.7258C1285.49 -64.7749 1286.99 -60.9089 1286.99 -56.9768C1286.99 -56.1816 1286.93 -55.3838 1286.81 -54.5818ZM1271.56 23.1011C1274.33 23.7622 1275.29 24.5554 1275.29 25.0549C1275.29 25.0701 1275.29 25.0847 1275.29 25.0991C1275.22 25.7312 1274.57 26.4602 1273.43 27.2642C1272.8 25.2881 1269.66 24.5251 1268.53 24.25C1245.5 18.6951 1233.67 12.8 1232.37 6.22803C1232.29 5.82959 1232.25 5.42725 1232.25 5.02271C1232.25 4.81104 1232.26 4.59888 1232.28 4.38623C1232.49 4.17212 1232.7 3.95703 1232.9 3.74219C1234.77 11.0852 1247.09 17.249 1271.56 23.1011ZM1235.5 56.051C1235.31 55.9131 1235.1 55.7832 1234.86 55.6641C1236.78 54.9441 1238.56 54.2371 1240.19 53.5461C1239.14 54.2661 1237.57 55.105 1235.5 56.051ZM1232.43 59.6831C1232.41 59.647 1232.39 59.6101 1232.36 59.573C1232.58 59.4851 1232.79 59.397 1233 59.311C1232.83 59.4302 1232.64 59.5542 1232.43 59.6831ZM1070.85 107.385C1062.17 107.997 1058.76 98.8765 1055.14 89.1985L1055.09 89.0852C1052.38 81.834 1049.58 74.417 1044.31 71.7131C1050.04 73.019 1053.14 80.123 1056.38 87.5752C1060.33 96.667 1064.4 106.057 1073.76 106.057C1074.07 106.057 1074.38 106.047 1074.7 106.026C1091.57 104.937 1125.62 97.626 1155 90.1582C1124.75 98.0642 1088.2 106.178 1070.85 107.385ZM972.333 78.6182C971.369 78.739 970.465 78.8821 969.594 79.0332C971.205 78.6741 972.984 78.355 974.997 78.134C978.411 77.7632 981.659 77.4541 984.786 77.1812C980.865 77.6011 976.733 78.0701 972.333 78.6182ZM948.516 75.8162C944.453 68.134 938.841 67.0122 932.901 65.8242C928.128 64.8691 923.195 63.8821 918.171 59.5151C905.004 48.0691 866.781 -1.80688 858.528 -15.2939C858.484 -15.3669 858.443 -15.4358 858.405 -15.5C858.867 -15.3069 859.455 -15.0149 860.122 -14.6599C860.224 -13.897 860.727 -13.105 861.026 -12.6338C869.976 1.40308 907.176 47.3562 920.447 58.8442C925.82 63.498 931.08 64.5742 935.722 65.5232C941.458 66.696 945.989 67.623 949.521 74.499C952.563 80.418 954.979 82.063 958.29 81.873C953.906 82.957 951.959 82.3252 948.516 75.8162ZM974.932 -49.803C975.747 -51.3076 976.123 -53.2749 976.123 -55.6396C976.123 -59.4255 975.16 -64.2302 973.502 -69.7878C975.516 -63.5706 976.713 -58.2783 976.713 -54.3601C976.713 -52.4419 976.426 -50.853 975.807 -49.646C973.421 -44.99 968.601 -42.292 962.613 -40.4099C968.013 -42.4419 972.487 -45.291 974.932 -49.803ZM931.281 -230.71C945.067 -233.49 988.648 -216.458 1020.47 -204.017C1036.23 -197.855 1049.84 -192.534 1056.63 -190.83C1057.18 -190.692 1057.71 -190.636 1058.23 -190.649C1057.42 -190.307 1056.58 -190.215 1055.72 -190.432C1049.07 -192.101 1035.65 -197.336 1020.11 -203.398C986.786 -216.396 945.32 -232.569 931.042 -229.781C930.118 -229.6 929.318 -229.255 928.636 -228.762C929.197 -229.812 930.056 -230.462 931.281 -230.71ZM1127.54 -249.003C1142.91 -245.974 1146.98 -228.822 1146.98 -208.251C1146.98 -207.099 1146.97 -205.937 1146.94 -204.765C1146.91 -225.907 1142.58 -243.71 1126.12 -246.996C1111.43 -249.946 1100.53 -246.46 1092.16 -240.059C1100.53 -247.684 1111.71 -252.124 1127.54 -249.003ZM1145.35 -125.767C1145.7 -125.449 1146.08 -125.237 1146.48 -125.113C1145.78 -124.876 1145.23 -124.885 1144.87 -125.218C1143.33 -126.652 1142.51 -129.556 1142.17 -133.471C1142.67 -129.942 1143.67 -127.301 1145.35 -125.767ZM1237.16 -138.724C1244.93 -132.291 1248.85 -125.03 1248.85 -117.119C1248.85 -116.614 1248.84 -116.106 1248.81 -115.596C1248.4 -109.084 1245.42 -102.33 1240.66 -95.5129C1244.38 -101.508 1246.67 -107.478 1247.03 -113.332C1247.06 -113.864 1247.07 -114.394 1247.07 -114.92C1247.07 -123.282 1242.98 -130.915 1234.88 -137.629C1217.59 -151.967 1202.28 -154.276 1189.36 -151.392C1189.66 -151.483 1189.96 -151.586 1190.27 -151.672C1206.02 -156.051 1221.36 -151.815 1237.16 -138.724ZM1282.64 -51.4978C1282.19 -48.3279 1280.79 -45.2378 1278.74 -42.23C1279.61 -44.1729 1280.22 -46.1528 1280.48 -48.1738C1280.59 -48.9641 1280.64 -49.7537 1280.64 -50.5425C1280.64 -55.05 1278.93 -59.5239 1275.55 -63.8738C1271.97 -68.4749 1266.43 -70.1479 1259.54 -69.6858C1267.95 -71.3298 1274.53 -70.4028 1278.2 -65.6838C1281.29 -61.696 1282.81 -57.7839 1282.81 -53.7913C1282.81 -53.03 1282.75 -52.2661 1282.64 -51.4978ZM1241.72 49.3892C1241.37 49.2461 1241 49.113 1240.57 48.998C1240.46 48.9692 1240.36 48.939 1240.25 48.9102C1243.42 47.8452 1246.42 46.7661 1249.13 45.6912C1249.19 45.7598 1249.21 45.8135 1249.21 45.8489C1249.21 45.8521 1249.21 45.8552 1249.21 45.8582C1249.2 45.9121 1249.18 45.9712 1249.16 46.0281C1247.35 47.01 1244.87 48.1362 1241.72 49.3892ZM1230.13 58.2971C1230.12 58.293 1230.11 58.2881 1230.09 58.2842C1229.6 58.146 1229.14 58.0051 1228.67 57.8662C1229.75 57.498 1230.81 57.1321 1231.83 56.769C1232.24 56.885 1232.63 57.0042 1233.05 57.1201C1232.15 57.499 1231.17 57.8911 1230.13 58.2971ZM1227.98 61.9702C1227.76 61.8281 1227.47 61.696 1227.15 61.5742C1228.24 61.177 1229.25 60.7961 1230.2 60.4292C1230.45 60.53 1230.59 60.6152 1230.67 60.6721C1229.9 61.0742 1229.01 61.5051 1227.98 61.9702ZM1059.55 85.3721L1059.56 85.3748C1063.83 93.8979 1068.25 102.701 1077.51 102.7C1077.81 102.7 1078.11 102.69 1078.41 102.672C1095.76 101.639 1130.69 94.2231 1160.32 86.7241C1129.86 94.6541 1092.43 102.877 1074.57 104.03C1065.94 104.582 1062.19 95.9375 1058.21 86.7798L1058.21 86.7791C1055.28 80.0242 1052.27 73.1221 1047.05 70.5471C1052.75 71.791 1056.07 78.425 1059.55 85.3721ZM977.417 75.6621C982.05 75.2332 986.327 74.938 990.4 74.7122C985.556 75.085 980.373 75.5381 974.781 76.146C973.682 76.2661 972.661 76.418 971.687 76.584C973.375 76.197 975.259 75.863 977.417 75.6621ZM864.599 -12.0928C864.779 -11.74 864.997 -11.3809 865.234 -11.0229C874.525 2.98608 910.646 45.1152 924.038 56.6621C929.359 61.251 934.45 62.3162 938.94 63.2551C944.477 64.4141 948.849 65.3291 952.299 72.2422C955.143 77.9441 957.411 79.6201 960.447 79.5132C956.385 80.562 954.556 79.918 951.301 73.5852C947.328 65.8562 941.885 64.7422 936.123 63.5642C931.507 62.6191 926.734 61.6431 921.755 57.333C908.82 46.134 872.971 1.92407 863.245 -12.8938C863.69 -12.6328 864.141 -12.366 864.599 -12.0928ZM888.297 -7.32983C888.249 -7.21777 888.195 -7.10986 888.161 -6.98779C887.618 -7.13599 887.07 -7.29785 886.516 -7.47388C886.604 -7.5188 886.705 -7.56201 886.827 -7.60181C887.312 -7.50488 887.802 -7.41382 888.297 -7.32983ZM1054.32 -188.1C1047.69 -189.764 1034.4 -194.936 1019.02 -200.924C986.212 -213.69 945.385 -229.573 931.208 -226.896C930.26 -226.717 929.44 -226.37 928.747 -225.865C929.312 -226.925 930.182 -227.575 931.427 -227.818C945.109 -230.501 988.044 -213.759 1019.38 -201.535C1034.99 -195.448 1048.46 -190.191 1055.23 -188.492C1055.8 -188.349 1056.35 -188.291 1056.88 -188.306C1056.05 -187.967 1055.2 -187.88 1054.32 -188.1ZM1144.91 -201.184C1144.86 -222.09 1140.6 -239.744 1124.32 -243.035C1109.78 -246.012 1098.98 -242.611 1090.67 -236.337C1098.98 -243.823 1110.06 -248.178 1125.73 -245.035C1140.94 -241.998 1144.95 -224.933 1144.95 -204.539C1144.95 -203.43 1144.94 -202.311 1144.91 -201.184ZM1143.05 -123.199C1141.54 -124.626 1140.74 -127.476 1140.39 -131.305C1140.9 -127.863 1141.87 -125.275 1143.51 -123.753C1143.87 -123.417 1144.26 -123.197 1144.68 -123.068C1143.97 -122.834 1143.41 -122.85 1143.05 -123.199ZM1243.25 -111.197C1243.28 -111.703 1243.3 -112.207 1243.3 -112.708C1243.3 -120.91 1239.27 -128.404 1231.32 -135.003C1213.66 -149.67 1198.12 -151.579 1185.16 -148.274C1198.51 -152.747 1214.72 -151.757 1233.6 -136.09C1241.22 -129.774 1245.07 -122.653 1245.07 -114.903C1245.07 -114.422 1245.06 -113.939 1245.03 -113.454C1244.6 -106.449 1241.24 -99.2229 1235.87 -91.959C1240.2 -98.4358 1242.88 -104.89 1243.25 -111.197ZM1278.5 -48.437C1278.08 -45.2668 1276.73 -42.1689 1274.74 -39.1479C1275.89 -41.7996 1276.55 -44.519 1276.55 -47.3127C1276.55 -51.636 1274.99 -56.1362 1271.32 -60.835C1267.54 -65.668 1261.87 -67.4509 1254.9 -67.0298C1263.38 -68.6479 1270.1 -67.6189 1273.97 -62.645C1277.1 -58.6184 1278.65 -54.657 1278.65 -50.5986C1278.65 -49.8813 1278.6 -49.1611 1278.5 -48.437ZM1264.59 31.6062C1263.52 30.9292 1262.18 30.592 1261.54 30.4331C1240.12 25.1731 1229.03 19.4531 1227.63 12.947C1227.53 12.4731 1227.48 11.9944 1227.48 11.511C1227.48 10.6755 1227.62 9.82617 1227.9 8.96411C1227.93 9.3042 1227.97 9.64502 1228.04 9.98511C1229.58 17.4651 1241.19 23.5972 1264.56 29.2832C1266.08 29.655 1266.97 30.0662 1267.43 30.4272C1266.54 30.812 1265.6 31.2041 1264.59 31.6062ZM1229.11 53.8611C1228.31 53.6082 1227.54 53.3521 1226.79 53.092C1230.18 52.1072 1233.57 51.0811 1236.83 50.0332C1237.43 50.208 1238.07 50.3782 1238.69 50.55C1235.91 51.583 1232.73 52.688 1229.11 53.8611ZM1223.95 60.582C1223.33 60.3882 1222.73 60.1921 1222.15 59.9941C1223.26 59.645 1224.34 59.2981 1225.4 58.9512C1225.94 59.125 1226.48 59.2991 1227.04 59.4702C1226.06 59.833 1225.03 60.2031 1223.95 60.582ZM1222.44 64.272C1221.9 64.1091 1221.36 63.946 1220.83 63.78C1221.88 63.4282 1222.91 63.0791 1223.9 62.7351C1223.94 62.7212 1223.97 62.708 1224.01 62.6941C1224.46 62.8311 1224.91 62.9661 1225.37 63.1011C1224.47 63.4741 1223.49 63.8662 1222.44 64.272ZM1062.75 83.1782C1067.34 91.1292 1072.09 99.343 1081.26 99.343C1081.54 99.343 1081.83 99.3352 1082.12 99.3191C1099.91 98.3491 1135.59 90.863 1165.41 83.3562C1134.79 91.293 1096.62 99.5852 1078.29 100.676C1069.73 101.186 1065.65 93.0691 1061.34 84.4761C1058.22 78.2471 1055.01 71.8882 1049.89 69.415C1055.5 70.6521 1059.04 76.7661 1062.75 83.1782ZM979.833 73.1912C985.531 72.7571 990.713 72.5522 995.624 72.4482C989.964 72.696 983.961 73.0481 977.233 73.6702C976.054 73.78 974.962 73.9312 973.927 74.103C975.656 73.7002 977.593 73.364 979.833 73.1912ZM869.702 -9.03198C879.304 4.68408 914.135 42.9011 927.625 54.4832C932.896 59.0081 937.816 60.062 942.156 60.9922C947.493 62.1362 951.708 63.0391 955.071 69.9902C957.716 75.458 959.836 77.1782 962.604 77.165C961.197 77.541 960.04 77.689 959.047 77.3772C957.424 76.8652 955.941 75.063 954.088 71.3501C950.207 63.5691 944.932 62.4661 939.349 61.2971C934.888 60.364 930.275 59.3992 925.344 55.147C913.05 44.5471 879.747 5.91504 868.583 -9.70093C868.955 -9.47778 869.327 -9.25488 869.702 -9.03198ZM923.922 -27.5808C923.916 -27.585 923.911 -27.5889 923.906 -27.594C924.004 -27.6628 924.099 -27.7319 924.2 -27.7998C924.107 -27.728 924.013 -27.6548 923.922 -27.5808ZM1052.93 -185.766C1046.32 -187.426 1033.16 -192.532 1017.93 -198.445L1017.93 -198.447C985.642 -210.981 945.47 -226.576 931.374 -224.012C930.406 -223.835 929.568 -223.486 928.863 -222.974C929.434 -224.042 930.317 -224.692 931.58 -224.931C945.191 -227.504 987.445 -211.064 1018.29 -199.06C1033.74 -193.047 1047.08 -187.855 1053.84 -186.16C1054.43 -186.01 1055.01 -185.948 1055.57 -185.967C1054.71 -185.62 1053.84 -185.538 1052.93 -185.766ZM1142.89 -197.625C1142.81 -218.284 1138.6 -235.777 1122.52 -239.073C1108.74 -241.945 1098.43 -239.196 1090.39 -233.678C1098.51 -240.373 1109.17 -244.093 1123.92 -241.076C1138.99 -238.029 1142.92 -221.042 1142.92 -200.82C1142.92 -199.763 1142.91 -198.698 1142.89 -197.625ZM1141.23 -121.179C1139.75 -122.607 1138.95 -125.43 1138.61 -129.213C1139.11 -125.823 1140.07 -123.267 1141.67 -121.748C1142.05 -121.389 1142.46 -121.16 1142.9 -121.027C1142.18 -120.793 1141.6 -120.813 1141.23 -121.179ZM1239.48 -109.055C1239.51 -109.535 1239.52 -110.013 1239.52 -110.489C1239.52 -118.533 1235.57 -125.888 1227.76 -132.373C1210.38 -146.829 1195.12 -148.725 1182.42 -145.505C1195.51 -149.893 1211.43 -148.924 1230.04 -133.464C1237.52 -127.263 1241.3 -120.281 1241.3 -112.69C1241.3 -112.234 1241.28 -111.775 1241.26 -111.315C1240.85 -104.478 1237.56 -97.4128 1232.31 -90.3049C1236.52 -96.6228 1239.13 -102.914 1239.48 -109.055ZM1270.57 -35.8279C1271.72 -38.5178 1272.37 -41.2734 1272.37 -44.0996C1272.37 -48.4871 1270.8 -53.0444 1267.08 -57.7898C1262.88 -63.1558 1256.62 -64.9729 1249.01 -64.292C1258.11 -66.209 1265.4 -65.1619 1269.74 -59.604C1273.01 -55.416 1274.41 -51.3635 1274.41 -47.438C1274.41 -43.4392 1272.96 -39.5723 1270.57 -35.8279ZM1220.23 54.9512C1221.31 54.6501 1222.41 54.3442 1223.51 54.0332C1224.27 54.3232 1225.06 54.6101 1225.87 54.894C1224.83 55.2212 1223.74 55.5542 1222.64 55.8911C1221.8 55.583 1221 55.269 1220.23 54.9512ZM1215.73 61.9521C1216.83 61.6272 1217.91 61.3032 1218.96 60.9812C1219.57 61.209 1220.2 61.4331 1220.83 61.655C1219.82 61.998 1218.77 62.3462 1217.69 62.7002C1217.02 62.4541 1216.36 62.2051 1215.73 61.9521ZM1179.24 73.6541C1148.53 81.4722 1108.87 89.748 1089.46 90.6111C1081.09 90.9875 1075.88 84.1926 1070.83 77.6179L1070.81 77.5942C1066.38 71.8281 1061.83 65.9192 1055.19 64.979C1055.28 64.958 1055.36 64.9412 1055.45 64.9192C1063.91 62.8562 1069.71 68.4922 1075.85 74.4631C1081.63 80.0952 1087.61 85.9141 1096.3 85.9141C1096.52 85.9141 1096.75 85.9102 1096.97 85.9021C1118.89 85.147 1174.62 73.8701 1212.72 62.834C1213.35 63.1182 1214 63.397 1214.67 63.6731C1205.23 66.6721 1193.39 70.0481 1179.24 73.6541ZM925.539 -26.2349C925.519 -26.2529 925.498 -26.2698 925.478 -26.2878C925.771 -26.5188 926.077 -26.7419 926.389 -26.958C926.098 -26.7249 925.815 -26.4839 925.539 -26.2349ZM1051.53 -183.425C1044.94 -185.081 1031.92 -190.123 1016.84 -195.96C985.074 -208.263 945.525 -223.579 931.537 -221.119C930.544 -220.945 929.686 -220.594 928.966 -220.07C929.542 -221.155 930.443 -221.81 931.733 -222.044C945.267 -224.51 986.844 -208.369 1017.2 -196.583L1017.21 -196.581C1032.5 -190.644 1045.71 -185.517 1052.44 -183.826C1053.07 -183.667 1053.68 -183.608 1054.27 -183.633C1053.38 -183.277 1052.47 -183.189 1051.53 -183.425ZM1140.85 -193.436C1140.83 -214.097 1136.75 -231.733 1120.72 -235.102C1106.77 -238.032 1096.4 -235.155 1088.33 -229.499C1096.47 -236.353 1107.18 -240.228 1122.12 -237.114C1137.03 -234.058 1140.89 -217.146 1140.89 -197.094C1140.89 -195.885 1140.88 -194.665 1140.85 -193.436ZM1139.4 -119.149C1137.93 -120.601 1137.14 -123.457 1136.81 -127.276C1137.3 -123.86 1138.24 -121.281 1139.84 -119.741C1140.23 -119.359 1140.66 -119.12 1141.12 -118.981C1140.38 -118.744 1139.79 -118.767 1139.4 -119.149ZM1235.7 -106.902C1235.73 -107.358 1235.74 -107.812 1235.74 -108.264C1235.74 -116.149 1231.87 -123.367 1224.2 -129.736C1207.08 -143.99 1192.1 -145.865 1179.65 -142.723C1192.48 -147.035 1208.13 -146.098 1226.49 -130.834C1233.81 -124.749 1237.52 -117.905 1237.52 -110.473C1237.52 -110.041 1237.51 -109.606 1237.48 -109.17C1237.1 -102.501 1233.89 -95.5969 1228.75 -88.646C1232.84 -94.802 1235.37 -100.929 1235.7 -106.902ZM1258.62 -51.7158C1252.44 -59.5679 1242.9 -60.5928 1231.65 -57.6069C1246.55 -63.6709 1258.96 -64.9189 1265.51 -56.5569C1268.83 -52.3181 1270.24 -48.2051 1270.24 -44.2126C1270.24 -38.1323 1266.96 -32.332 1262.15 -26.7949C1261.6 -26.3979 1261.04 -26.0029 1260.48 -25.6099C1262.7 -29.4985 1264.04 -33.5103 1264.04 -37.6528C1264.04 -42.1807 1262.44 -46.865 1258.62 -51.7158ZM1213.97 56.6431C1215.01 56.3682 1216.06 56.0862 1217.13 55.7981C1217.89 56.147 1218.67 56.4922 1219.5 56.8311C1218.47 57.1362 1217.41 57.4441 1216.33 57.7561C1215.51 57.3911 1214.71 57.021 1213.97 56.6431ZM1210.36 59.4412C1209.6 59.0181 1208.87 58.5862 1208.2 58.144C1209.17 57.897 1210.16 57.6421 1211.16 57.3801C1211.87 57.791 1212.64 58.1902 1213.43 58.585C1212.43 58.8682 1211.41 59.1531 1210.36 59.4412ZM1079.23 72.291C1085.28 77.3401 1091.53 82.5571 1100.07 82.5571C1100.27 82.5571 1100.48 82.5542 1100.69 82.5481C1120.76 81.9602 1160.44 74.1072 1190.99 66.563C1189.66 66.9011 1188.31 67.2422 1186.94 67.5852C1156.39 75.2161 1116.7 83.2222 1096.91 83.9031C1088.71 84.1875 1082.91 78.5422 1077.28 73.071L1077.24 73.03C1073.35 69.249 1069.38 65.3972 1064.65 63.572C1069.98 64.5881 1074.52 68.353 1079.23 72.291ZM889.107 0.348145C898.318 10.4421 915.18 24.0251 929.01 35.165C933.911 39.1121 938.54 42.8411 941.992 45.7561C947.042 50.022 951.484 51.0791 955.052 51.9282C959.755 53.0461 963.153 53.855 966.177 60.967C967.832 64.8611 969.285 66.8142 971.031 67.498C972.943 68.2473 974.843 67.3931 977.248 66.312L977.257 66.3081C980.031 65.061 983.832 63.353 989.508 63.3022C999.574 63.2126 1008.2 64.2651 1016.54 65.2822L1016.67 65.2981C1024.28 66.2271 1031.65 67.1182 1039.31 66.9692C1030.3 67.884 1021.83 67.3892 1012.43 66.8301C1003.9 66.3232 995.073 65.7991 984.586 66.2471C978.78 66.499 974.782 68.0732 971.864 69.2222C967.077 71.1062 965.635 71.6711 962.446 64.6482C958.841 56.7131 954.299 55.6902 949.039 54.5061C945.221 53.646 940.893 52.6702 936.105 48.5952C923.602 37.946 897.679 13.6831 884.609 -1.12891C886.202 -0.481934 887.714 0.0270996 889.107 0.348145ZM914.411 -23.0789C914.181 -22.6069 913.974 -22.1169 913.783 -21.6118C911.998 -22.646 910.318 -23.4248 908.792 -23.7539C908.857 -24.2949 908.927 -24.844 909.008 -25.4009C910.419 -25.3059 912.315 -24.3889 914.411 -23.0789ZM1048.74 -178.755C1042.18 -180.403 1029.43 -185.314 1014.67 -191.001L1014.64 -191.012C983.909 -202.852 945.674 -217.583 931.865 -215.347C931.021 -215.211 930.276 -214.943 929.624 -214.56C929.382 -215.39 929.162 -216.192 928.967 -216.968C928.979 -216.994 928.985 -217.026 928.998 -217.051C929.578 -218.225 930.521 -218.911 931.882 -219.149C945.317 -221.502 986.247 -205.664 1016.12 -194.095C1031.26 -188.234 1044.33 -183.171 1051.04 -181.486C1052.62 -181.09 1054.06 -181.277 1055.42 -181.93C1053.26 -179.458 1051.1 -178.164 1048.74 -178.755ZM1200.28 -62.3938C1215.85 -75.6208 1227.46 -89.3799 1228.16 -102.601C1228.18 -103.01 1228.19 -103.418 1228.19 -103.824C1228.19 -111.394 1224.46 -118.337 1217.08 -124.478C1194.83 -143.052 1176.45 -140.021 1162.78 -132.721C1177.25 -142.524 1197.38 -149.466 1222.92 -128.199C1230.11 -122.227 1233.74 -115.522 1233.74 -108.249C1233.74 -107.839 1233.73 -107.427 1233.71 -107.014C1232.91 -92.6309 1218.52 -77.073 1200.28 -62.3938ZM1254.39 -48.6748C1249.8 -54.4849 1243.74 -56.8279 1236.69 -56.6958C1245.18 -58.0879 1252.28 -56.531 1257.05 -50.479C1260.47 -46.1304 1261.92 -41.8882 1261.92 -37.7546C1261.92 -33.4688 1260.36 -29.2998 1257.85 -25.25C1259.14 -28.2356 1259.88 -31.2874 1259.88 -34.4072C1259.88 -39.0127 1258.26 -43.7666 1254.39 -48.6748ZM1198.5 58.5C1168.16 65.856 1128.43 73.4512 1108.07 73.8381C1107.93 73.8411 1107.79 73.843 1107.64 73.843C1100.01 73.842 1093.53 69.9641 1087.27 66.2122C1083.16 63.749 1078.96 61.2441 1074.47 59.8911C1079.72 60.6731 1084.72 63.1511 1089.9 65.7322C1096.58 69.0542 1103.48 72.4871 1111.44 72.4871C1111.57 72.4871 1111.7 72.4861 1111.82 72.4841C1132.51 72.197 1172.44 64.707 1202.83 57.4111C1203.14 57.3362 1203.46 57.259 1203.78 57.1812C1203.79 57.186 1203.79 57.1902 1203.8 57.196C1202.08 57.625 1200.32 58.0591 1198.5 58.5ZM1086.24 67.9282C1092.74 71.8201 1099.46 75.843 1107.64 75.843C1107.79 75.843 1107.95 75.8411 1108.11 75.8381L1108.11 75.8381C1128.62 75.4478 1168.53 67.825 1198.97 60.4441C1200.95 59.9631 1203.21 59.4072 1205.67 58.7871C1206.3 59.26 1206.98 59.7192 1207.7 60.1711C1202.53 61.5781 1196.91 63.04 1190.79 64.5522C1160.31 72.092 1120.62 79.9631 1100.63 80.5491C1092.54 80.793 1086.48 75.7341 1080.6 70.8247L1080.51 70.7551C1075.38 66.467 1070.1 62.0771 1063.6 61.3921C1071.98 59.4102 1078.92 63.541 1086.24 67.9282ZM991.686 60.8271C991.764 60.8271 991.843 60.8271 991.921 60.8281C1001.91 60.9221 1010.51 62.2432 1018.82 63.52C1019.08 63.5601 1019.34 63.5991 1019.6 63.6392C1018.71 63.5322 1017.82 63.4231 1016.91 63.313C1008.47 62.2832 999.732 61.2332 989.49 61.3022C988.084 61.3152 986.802 61.4282 985.605 61.6001C987.351 61.145 989.344 60.8271 991.686 60.8271ZM892.29 0.733154C900.27 9.45898 914.602 20.1072 927.37 29.5911C934.322 34.7532 940.886 39.6292 945.578 43.5732C950.572 47.7732 954.843 48.8191 958.276 49.6592C962.764 50.7581 966.007 51.5522 968.948 58.7102C970.544 62.5952 971.953 64.5322 973.656 65.187C973.882 65.2732 974.109 65.3352 974.333 65.3772C973.302 65.7561 972.462 65.9111 971.76 65.6362C970.594 65.1792 969.405 63.447 968.016 60.1851C964.598 52.1431 960.389 51.1411 955.515 49.9822C951.979 49.1411 947.969 48.187 943.282 44.228C939.812 41.2981 935.388 37.7341 930.265 33.6072C917.265 23.1362 901.572 10.4941 892.207 0.735107C892.234 0.735107 892.263 0.734131 892.29 0.733154ZM916.519 -21.6848C916.325 -21.2229 916.155 -20.74 915.997 -20.2458C915.837 -20.3499 915.677 -20.4529 915.519 -20.553C915.691 -21.0449 915.889 -21.5149 916.103 -21.9719C916.24 -21.8779 916.38 -21.781 916.519 -21.6848ZM934.374 -18.6638C934.252 -18.7668 934.13 -18.8689 934.007 -18.9719C934.957 -20.687 936.28 -22.0808 937.893 -23.2268C936.427 -21.9758 935.235 -20.4709 934.374 -18.6638ZM1047.35 -176.421C1040.8 -178.064 1028.19 -182.911 1013.58 -188.522L1013.51 -188.55C983.311 -200.154 945.749 -214.586 932.034 -212.46C931.447 -212.37 930.911 -212.213 930.415 -212.004C930.356 -212.189 930.306 -212.362 930.247 -212.545C930.77 -212.963 931.403 -213.248 932.182 -213.373C945.475 -215.514 984.976 -200.296 1013.87 -189.166L1013.95 -189.135C1028.77 -183.425 1041.57 -178.493 1048.25 -176.816C1048.96 -176.636 1049.65 -176.589 1050.32 -176.627C1049.35 -176.261 1048.37 -176.166 1047.35 -176.421ZM1134.78 -182.802C1134.68 -202.682 1130.74 -219.8 1115.31 -223.21C1101.6 -226.241 1091.41 -223.458 1083.45 -218.001C1091.47 -224.619 1102 -228.411 1116.69 -225.221C1131.16 -222.075 1134.81 -205.345 1134.81 -185.792C1134.81 -184.802 1134.8 -183.805 1134.78 -182.802ZM1133.93 -113.082C1132.54 -114.535 1131.79 -117.3 1131.46 -120.965C1131.94 -117.716 1132.83 -115.237 1134.32 -113.71C1134.77 -113.246 1135.27 -112.968 1135.8 -112.823C1135 -112.579 1134.36 -112.626 1133.93 -113.082ZM1224.39 -100.442C1224.41 -100.83 1224.42 -101.217 1224.42 -101.602C1224.42 -109.014 1220.76 -115.819 1213.53 -121.845C1197.3 -135.407 1183.21 -137.288 1171.57 -134.457C1183.58 -138.451 1198.34 -137.521 1215.8 -122.941C1222.78 -117.129 1226.19 -110.878 1226.19 -103.865C1226.19 -103.481 1226.18 -103.094 1226.16 -102.706C1225.83 -96.4358 1222.85 -89.9878 1218.08 -83.5C1221.8 -89.1929 1224.1 -94.8699 1224.39 -100.442ZM1249.24 -17.6938C1250.71 -21.0137 1251.57 -24.4043 1251.57 -27.864C1251.57 -32.6465 1249.92 -37.5603 1245.92 -42.5999C1239.23 -51.0398 1230.29 -52.8489 1220.15 -50.6499C1233.79 -56.022 1245.6 -56.5759 1252.82 -47.4358C1256.3 -43.0234 1257.77 -38.7058 1257.77 -34.4897C1257.77 -29.5549 1255.76 -24.7593 1252.63 -20.1138C1251.48 -19.2979 1250.34 -18.4919 1249.24 -17.6938ZM1212.45 50.8982C1213.38 50.677 1214.35 50.4431 1215.37 50.197L1215.37 50.198C1214.42 50.437 1213.45 50.676 1212.48 50.917C1212.47 50.9111 1212.46 50.9041 1212.45 50.8982ZM1207.36 52.1602C1207.34 52.1411 1207.33 52.1221 1207.31 52.103C1208.17 51.9031 1209.03 51.7041 1209.88 51.5051C1209.89 51.5181 1209.91 51.53 1209.93 51.5432C1209.08 51.748 1208.22 51.9541 1207.36 52.1602ZM1209.27 53.7612C1209.78 53.635 1210.32 53.5061 1210.86 53.373C1210.34 53.5051 1209.81 53.6382 1209.28 53.771C1209.27 53.7681 1209.27 53.7642 1209.27 53.7612ZM1093.72 63.5181C1100.53 66.2781 1107.55 69.1311 1115.27 69.1311C1115.36 69.1311 1115.45 69.1311 1115.54 69.1301C1135.38 68.959 1172.48 62.2942 1202.16 55.438C1202.18 55.459 1202.19 55.4812 1202.21 55.501C1171.95 62.7612 1132.3 70.2002 1111.8 70.4841C1104.22 70.6248 1097.48 67.271 1090.97 64.0276L1090.8 63.9412C1086.63 61.8662 1082.38 59.76 1077.93 58.583C1083.21 59.2522 1088.37 61.3462 1093.72 63.5181ZM918.648 -20.1638C918.492 -19.7119 918.356 -19.241 918.233 -18.7598C918.067 -18.8728 917.901 -18.9858 917.735 -19.0969C917.872 -19.5779 918.03 -20.0398 918.203 -20.4888C918.351 -20.3809 918.499 -20.272 918.648 -20.1638ZM1044.55 -171.751C1038.04 -173.387 1025.7 -178.101 1011.41 -183.56L1011.21 -183.638C982.06 -194.772 945.897 -208.585 932.362 -206.686C932.34 -206.683 932.322 -206.678 932.3 -206.674C931.857 -207.848 931.453 -208.978 931.068 -210.083C931.45 -210.264 931.859 -210.41 932.337 -210.483C945.552 -212.519 984.446 -197.575 1012.86 -186.658L1012.87 -186.655C1027.53 -181.02 1040.2 -176.154 1046.86 -174.482C1048.72 -174.013 1050.41 -174.32 1052.02 -175.193C1049.6 -172.513 1047.2 -171.09 1044.55 -171.751ZM1188.73 -56.844C1204.24 -69.7278 1216.22 -83.2419 1216.84 -96.1228C1216.86 -96.4719 1216.87 -96.8193 1216.87 -97.1658C1216.87 -104.261 1213.35 -110.79 1206.41 -116.586C1185.53 -134.094 1168.84 -131.882 1156.19 -125.332C1169.58 -134.21 1188.26 -140.364 1212.25 -120.31C1219.08 -114.613 1222.42 -108.496 1222.42 -101.641C1222.42 -101.277 1222.41 -100.912 1222.39 -100.544C1221.67 -86.3728 1207.02 -71.2168 1188.73 -56.844ZM1118.37 2.68018C1118.04 2.31714 1117.85 1.92603 1117.78 1.49121C1117.92 1.96021 1118.16 2.39722 1118.5 2.79907C1118.45 2.75708 1118.41 2.7251 1118.37 2.68018ZM1241.3 -11.533C1242.55 -14.7151 1243.29 -17.9519 1243.29 -21.2373C1243.29 -26.2249 1241.59 -31.3247 1237.46 -36.5149C1230.08 -45.7729 1220.87 -47.7659 1210.75 -45.4988C1224.28 -51.1348 1236.25 -51.5779 1244.36 -41.356C1247.96 -36.8083 1249.47 -32.3281 1249.47 -27.9336C1249.47 -23.5059 1247.94 -19.165 1245.51 -14.9299C1244.01 -13.7839 1242.6 -12.6528 1241.3 -11.533ZM1215.68 48.0222C1217.14 47.6802 1218.72 47.3032 1220.4 46.895C1218.88 47.2771 1217.32 47.6631 1215.72 48.051C1215.71 48.042 1215.69 48.0322 1215.68 48.0222ZM1210.33 49.2542C1211.23 49.052 1212.11 48.8491 1212.99 48.646C1213.02 48.6621 1213.04 48.6792 1213.06 48.6951C1212.18 48.9041 1211.31 49.114 1210.41 49.3252C1210.39 49.301 1210.36 49.2781 1210.33 49.2542ZM1205.71 50.2891C1206.46 50.123 1207.21 49.957 1207.95 49.79C1207.98 49.8201 1208.01 49.8511 1208.04 49.8801C1207.29 50.0532 1206.55 50.2251 1205.79 50.397C1205.77 50.3611 1205.73 50.3252 1205.71 50.2891ZM1201.97 51.2622C1201.95 51.2122 1201.93 51.1621 1201.91 51.1121C1202.48 50.9902 1203.05 50.8672 1203.61 50.7441C1203.64 50.7881 1203.67 50.8311 1203.7 50.874C1203.12 51.0042 1202.55 51.1331 1201.97 51.2622ZM1097.77 61.2781L1097.77 61.2795C1104.63 63.491 1111.72 65.7771 1119.13 65.7761L1119.25 65.7761C1138.1 65.7112 1172.18 59.897 1200.85 53.5581C1200.88 53.5962 1200.9 53.6331 1200.93 53.6711C1171.49 60.438 1135.04 66.9612 1115.52 67.1301C1115.44 67.1311 1115.35 67.1311 1115.27 67.1311C1107.95 67.1311 1101.1 64.353 1094.48 61.665C1090.32 59.9761 1086.08 58.2632 1081.74 57.26C1087.02 57.821 1092.3 59.5161 1097.77 61.2781ZM999.171 53.406C1008.73 54.0181 1017.14 56.105 1025.27 58.124C1027.34 58.6392 1029.39 59.146 1031.44 59.624C1028.83 59.1182 1026.2 58.5532 1023.55 57.978C1015.27 56.186 1006.72 54.332 996.846 53.8831C995.38 53.8162 994.046 53.8831 992.818 54.0381C994.604 53.5361 996.688 53.2471 999.171 53.406ZM932.765 22.9131C941.705 27.5332 950.148 31.897 956.347 37.0261C961.16 41.0371 964.938 42.051 967.974 42.8662C971.956 43.9351 974.587 44.6401 977.276 51.9421C978.723 55.865 979.967 57.6992 981.57 58.2732C981.622 58.292 981.672 58.2952 981.723 58.311C980.862 58.7122 980.169 58.9021 979.618 58.698C978.635 58.3372 977.573 56.6321 976.369 53.4851C973.226 45.2681 969.703 44.3511 965.24 43.1902C962.114 42.376 958.57 41.4551 954.039 37.676C948.041 32.6741 939.812 27.7642 931.099 22.5662C928.78 21.1821 926.446 19.7881 924.139 18.384C926.984 19.9241 929.885 21.425 932.765 22.9131ZM912.412 -16.5959C911.059 -17.292 909.712 -17.9299 908.417 -18.3628C908.427 -18.8699 908.443 -19.3838 908.469 -19.907C909.761 -19.5039 911.234 -18.761 912.755 -17.8809C912.648 -17.4209 912.534 -16.99 912.412 -16.5959ZM916.797 -15.3779C916.935 -15.2898 917.07 -15.2048 917.205 -15.1179C917.076 -14.8198 916.935 -14.5498 916.786 -14.304C916.666 -14.3638 916.547 -14.4238 916.427 -14.4849C916.547 -14.7688 916.664 -15.0718 916.776 -15.3928C916.782 -15.3879 916.79 -15.3828 916.797 -15.3779ZM920.818 -18.5469C920.709 -18.1499 920.614 -17.7429 920.531 -17.324C920.523 -17.2849 920.513 -17.25 920.505 -17.2109C920.336 -17.3259 920.17 -17.439 920.003 -17.554C920.101 -18.0178 920.219 -18.4639 920.349 -18.8989C920.505 -18.781 920.663 -18.6638 920.818 -18.5469ZM940.792 -13.7209C940.786 -13.6819 940.776 -13.6538 940.768 -13.616C940.602 -13.7339 940.438 -13.8479 940.27 -13.9709C940.946 -17.168 942.614 -19.4829 944.999 -21.1819C942.906 -19.344 941.422 -16.929 940.792 -13.7209ZM1041.76 -167.076C1035.28 -168.703 1023.21 -173.284 1009.25 -178.588L1009.23 -178.594C982.289 -188.823 949.071 -201.436 934.544 -201.033C934.016 -202.303 933.521 -203.537 933.047 -204.746C946.401 -206.237 982.018 -192.648 1010.7 -181.692C1025.05 -176.21 1037.44 -171.476 1044.07 -169.812C1046.13 -169.295 1048 -169.652 1049.77 -170.669C1047.16 -167.876 1044.59 -166.365 1041.76 -167.076ZM1209.29 -91.783C1209.31 -92.0955 1209.31 -92.4067 1209.31 -92.7173C1209.31 -99.4951 1205.94 -105.749 1199.29 -111.317C1179.11 -128.285 1163.16 -126.173 1151.14 -119.973C1163.85 -128.468 1181.78 -134.625 1205.13 -115.052C1211.67 -109.586 1214.87 -103.735 1214.87 -97.1963Q1214.87 -96.7102 1214.84 -96.219C1214.22 -83.2549 1201.15 -69.3418 1184.66 -56.0879C1198.5 -67.865 1208.76 -79.9729 1209.29 -91.783ZM1237.09 -7.48193C1237.01 -7.39893 1236.94 -7.31494 1236.87 -7.23193C1238.3 -10.7253 1239.16 -14.2803 1239.16 -17.8855C1239.16 -22.9924 1237.44 -28.2007 1233.23 -33.48C1227.24 -40.9729 1220.3 -43.9128 1212.81 -43.7959C1221.61 -45.323 1229.55 -43.2249 1235.89 -35.2688C1239.64 -30.561 1241.19 -25.8882 1241.19 -21.2832C1241.19 -16.6011 1239.59 -11.989 1237.09 -7.48193ZM1204.05 47.1111C1203.73 46.1099 1203.58 45.0786 1203.58 44.0195C1203.58 43.0042 1203.72 41.9634 1203.97 40.8992C1203.99 42.0181 1204.15 43.1211 1204.48 44.207C1204.9 45.563 1205.57 46.8491 1206.48 48.0791C1205.86 48.2192 1205.24 48.3572 1204.62 48.4961C1204.4 48.041 1204.2 47.5811 1204.05 47.1111ZM1201.36 49.2161C1201.25 48.585 1201.2 47.9421 1201.2 47.2886C1201.2 46.2512 1201.33 45.187 1201.58 44.0981C1201.59 45.3252 1201.77 46.5332 1202.14 47.718C1202.28 48.1321 1202.43 48.541 1202.61 48.9431C1202.2 49.0352 1201.78 49.126 1201.36 49.2161ZM1001.59 50.9331C1011.01 51.7112 1019.35 54.0471 1027.41 56.3062C1029.99 57.0291 1032.54 57.7422 1035.09 58.394C1031.99 57.7322 1028.89 56.9641 1025.75 56.1831C1017.53 54.1431 1009.04 52.0332 999.297 51.4102C997.815 51.3152 996.459 51.373 995.212 51.5271C996.997 51.009 999.087 50.7251 1001.59 50.9331ZM935.802 21.8801C944.5 25.6401 953.495 29.5281 959.94 34.8462C964.687 38.7812 968.302 39.7861 971.207 40.593C975.097 41.6741 977.445 42.3262 980.055 49.687C981.441 53.5942 982.643 55.416 984.198 55.967C983.393 56.3721 982.747 56.5701 982.244 56.3901C981.317 56.0581 980.306 54.3772 979.154 51.251C976.105 42.9771 972.747 42.0762 968.494 40.9341C965.497 40.1301 962.102 39.2192 957.625 35.488C951.257 30.2192 942.323 25.6021 933.682 21.1362C932.962 20.7642 932.24 20.3911 931.518 20.0161C932.946 20.645 934.377 21.2642 935.802 21.8801ZM901.568 -9.71582C901.713 -9.75586 901.859 -9.79199 902.009 -9.81982C901.934 -9.073 901.893 -8.33301 901.893 -7.5979C901.893 -3.79248 902.984 -0.115967 906.109 3.72412C905.576 3.20215 905.059 2.67505 904.573 2.13818C901.831 -0.895996 900.815 -3.34717 900.815 -5.77783C900.815 -7.06836 901.101 -8.35303 901.568 -9.71582ZM911.226 -13.9229C911.067 -13.9849 910.906 -14.0459 910.747 -14.1079C909.992 -14.4038 909.231 -14.7 908.473 -14.9629C908.451 -15.3838 908.431 -15.8069 908.42 -16.2388C909.458 -15.8379 910.562 -15.302 911.682 -14.7229C911.536 -14.4309 911.384 -14.1599 911.226 -13.9229ZM913.238 -13.188C913.198 -13.2019 913.161 -13.2129 913.122 -13.2268C913.227 -13.4028 913.323 -13.6079 913.424 -13.803C913.51 -13.7568 913.596 -13.7119 913.682 -13.666C913.537 -13.4878 913.391 -13.3289 913.238 -13.188ZM919.193 -13.8618C919.06 -13.6819 918.919 -13.5229 918.773 -13.3809C918.718 -13.4038 918.662 -13.429 918.608 -13.4519C918.712 -13.637 918.809 -13.8389 918.905 -14.041C919 -13.981 919.097 -13.9219 919.193 -13.8618ZM922.492 -16.9329C922.511 -17.0339 922.539 -17.1289 922.561 -17.229C923.479 -16.5359 924.388 -15.8518 925.281 -15.1958C925.177 -14.8818 925.062 -14.5999 924.936 -14.3408C924.068 -14.856 923.175 -15.4248 922.279 -16.0178C922.354 -16.312 922.427 -16.6128 922.492 -16.9329ZM947.386 -20.5259C945.365 -18.7388 943.938 -16.386 943.328 -13.2678C943.233 -12.7839 943.105 -12.4329 942.969 -12.1628C942.82 -12.2529 942.672 -12.3379 942.519 -12.4348C942.609 -12.7178 942.693 -13.0129 942.755 -13.335C943.385 -16.542 945.026 -18.8469 947.386 -20.5259ZM1040.37 -164.744C1033.9 -166.367 1021.98 -170.881 1008.17 -176.108C982.359 -185.876 950.664 -197.874 935.768 -198.144C935.635 -198.45 935.509 -198.75 935.38 -199.053C949.803 -199.019 982.198 -186.718 1008.54 -176.718C1022.56 -171.392 1034.68 -166.791 1041.27 -165.136C1042.14 -164.918 1042.97 -164.853 1043.78 -164.913C1042.67 -164.539 1041.54 -164.449 1040.37 -164.744ZM1124.67 -164.107C1124.53 -183.075 1120.97 -199.838 1106.31 -203.386C1092.08 -206.828 1081.72 -203.633 1073.71 -197.87C1081.74 -204.837 1092.28 -209.05 1107.64 -205.4C1121.43 -202.125 1124.69 -185.605 1124.69 -166.832C1124.69 -165.928 1124.68 -165.02 1124.67 -164.107ZM1124.8 -102.966C1123.52 -104.452 1122.82 -107.167 1122.49 -110.712C1122.94 -107.607 1123.77 -105.202 1125.12 -103.662C1125.67 -103.039 1126.28 -102.674 1126.95 -102.512C1126.03 -102.248 1125.33 -102.364 1124.8 -102.966ZM1205.52 -89.6169C1205.54 -89.9111 1205.54 -90.2041 1205.54 -90.4963C1205.54 -97.1189 1202.25 -103.237 1195.73 -108.69C1181.65 -120.554 1169.7 -122.948 1159.77 -121.181C1170.12 -124.026 1182.82 -122.551 1198 -109.785C1204.26 -104.549 1207.31 -98.967 1207.31 -92.7454C1207.31 -92.4558 1207.31 -92.165 1207.29 -91.8728C1207.06 -86.7009 1204.7 -81.356 1200.88 -75.9619C1203.65 -80.5349 1205.33 -85.0999 1205.52 -89.6169ZM1228.99 -30.437C1223.92 -36.7759 1217.9 -40.354 1211.11 -41.074C1210.09 -41.1819 1209.06 -41.2219 1208.02 -41.2048C1216.86 -42.7888 1224.97 -40.6099 1231.66 -32.2319C1235.49 -27.4346 1237.06 -22.6538 1237.06 -17.9312C1237.06 -12.8086 1235.22 -7.75439 1232.41 -2.82178C1234.04 -6.65234 1235.03 -10.5522 1235.03 -14.5032C1235.03 -19.7383 1233.29 -25.0635 1228.99 -30.437ZM921.331 -12.585C921.164 -12.6128 920.995 -12.6479 920.821 -12.689C920.852 -12.7329 920.88 -12.783 920.912 -12.8279C921.052 -12.7468 921.193 -12.6638 921.331 -12.585ZM929.054 -12.5779C928.99 -12.542 928.927 -12.502 928.862 -12.4739C928.844 -12.4668 928.827 -12.4648 928.81 -12.458C928.153 -12.6748 927.442 -12.9858 926.693 -13.3679C926.79 -13.562 926.879 -13.771 926.965 -13.9858C927.675 -13.4858 928.372 -13.0149 929.054 -12.5779ZM949.75 -19.8518C947.812 -18.115 946.448 -15.8298 945.858 -12.813C945.635 -11.6719 945.224 -11.281 944.955 -11.127C944.882 -11.158 944.81 -11.189 944.736 -11.2219C944.978 -11.6958 945.165 -12.2468 945.29 -12.8828C945.899 -15.9878 947.476 -18.2249 949.75 -19.8518ZM1038.97 -162.405C1032.52 -164.025 1020.74 -168.47 1007.09 -173.618C982.404 -182.932 952.223 -194.312 937.06 -195.19C936.922 -195.501 936.786 -195.81 936.651 -196.118C951.419 -195.441 982.268 -183.772 1007.46 -174.237C1021.33 -168.988 1033.3 -164.455 1039.88 -162.804C1040.82 -162.568 1041.72 -162.515 1042.59 -162.593C1041.42 -162.189 1040.22 -162.092 1038.97 -162.405ZM1122.65 -160.052C1122.54 -178.96 1119.09 -195.819 1104.51 -199.416C1090.31 -202.919 1079.98 -199.735 1071.98 -194.033C1080 -200.935 1090.51 -205.154 1105.84 -201.441C1119.5 -198.135 1122.68 -181.623 1122.68 -162.987C1122.68 -162.014 1122.67 -161.035 1122.65 -160.052ZM1122.98 -100.939C1121.68 -102.47 1120.98 -105.28 1120.67 -108.936C1121.11 -105.734 1121.92 -103.243 1123.29 -101.658C1123.87 -100.994 1124.5 -100.614 1125.19 -100.449C1124.25 -100.174 1123.52 -100.299 1122.98 -100.939ZM1201.75 -87.4399C1201.76 -87.7183 1201.76 -87.9958 1201.76 -88.2725C1201.76 -94.7368 1198.54 -100.716 1192.17 -106.056C1178.31 -117.753 1166.6 -120.103 1156.9 -118.375C1167.01 -121.186 1179.47 -119.773 1194.45 -107.159C1200.56 -102.039 1203.54 -96.5896 1203.54 -90.5264C1203.54 -90.2539 1203.54 -89.98 1203.52 -89.7048C1203.3 -84.6599 1200.98 -79.4399 1197.24 -74.168C1199.93 -78.615 1201.56 -83.0508 1201.75 -87.4399ZM1115.86 4.41309C1115.22 3.75708 1114.91 3.02515 1114.87 2.20117C1115.01 3.06006 1115.38 3.84619 1116.01 4.54419C1115.96 4.49805 1115.91 4.46021 1115.86 4.41309ZM1210.9 -39.085C1217.23 -38.4148 1222.64 -35.177 1227.43 -29.187C1231.35 -24.2927 1232.94 -19.3936 1232.94 -14.542C1232.94 -9.22485 1231.03 -3.9646 1228.16 1.17017C1229.86 -2.85938 1230.92 -6.95972 1230.92 -11.1064C1230.92 -16.4766 1229.15 -21.9246 1224.76 -27.397C1219.36 -34.1299 1213.09 -37.8899 1206.12 -38.573C1205.15 -38.667 1204.18 -38.7009 1203.21 -38.6848C1205.84 -39.1899 1208.41 -39.3479 1210.9 -39.085ZM1114.19 5.5791C1113.34 4.73413 1112.93 3.79517 1112.9 2.73608C1113.03 3.83398 1113.52 4.82715 1114.34 5.70605C1114.29 5.66113 1114.24 5.625 1114.19 5.5791ZM1121.45 -99.645C1122.05 -98.9438 1122.7 -98.5479 1123.42 -98.377C1122.46 -98.104 1121.71 -98.2449 1121.15 -98.917C1119.92 -100.401 1119.24 -103.07 1118.92 -106.514C1119.36 -103.513 1120.15 -101.172 1121.45 -99.645ZM1120.64 -156.599C1120.49 -175.202 1117.07 -191.843 1102.71 -195.454C1088.56 -199.012 1078.26 -195.856 1070.28 -190.233C1078.29 -197.043 1088.75 -201.24 1104.03 -197.475C1117.57 -194.135 1120.66 -177.629 1120.66 -159.134C1120.66 -158.293 1120.65 -157.447 1120.64 -156.599ZM937.984 -193.128C953.025 -191.878 982.326 -180.824 1006.39 -171.747C1020.09 -166.577 1031.92 -162.113 1038.48 -160.466C1039.49 -160.211 1040.46 -160.172 1041.41 -160.281C1040.16 -159.844 1038.9 -159.74 1037.57 -160.071C1031.14 -161.687 1019.49 -166.065 1006.01 -171.136C982.429 -179.999 953.75 -190.776 938.413 -192.185C938.269 -192.5 938.125 -192.815 937.984 -193.128ZM1006.54 -52.7278C1008.94 -46.2644 1010.33 -40.9871 1010.33 -37.3545C1010.33 -36.5747 1010.27 -35.8706 1010.14 -35.2468C1009.1 -30.3269 1005.53 -27.7109 1000.56 -26.3079C1005.03 -28.0508 1008.3 -30.9629 1009.44 -35.9009C1009.62 -36.6772 1009.7 -37.5569 1009.7 -38.5337C1009.7 -42.0806 1008.56 -46.9084 1006.54 -52.7278ZM952.177 -19.2278C950.295 -17.5349 948.968 -15.3079 948.394 -12.365C948.127 -11 947.57 -10.8079 947.385 -10.7449C947.338 -10.7278 947.276 -10.731 947.224 -10.719C947.49 -11.1958 947.691 -11.7659 947.821 -12.4299C948.413 -15.4639 949.953 -17.647 952.177 -19.2278ZM1188.62 -103.425C1175 -114.94 1163.55 -117.248 1154.08 -115.576C1163.94 -118.329 1176.14 -116.964 1190.88 -104.526C1196.85 -99.5205 1199.76 -94.2051 1199.76 -88.2991C1199.76 -88.042 1199.76 -87.7842 1199.75 -87.5249C1199.52 -82.249 1197.03 -76.8408 1193 -71.3938C1195.98 -76.041 1197.79 -80.6809 1197.98 -85.2649C1197.99 -85.5269 1197.99 -85.7881 1197.99 -86.0483C1197.99 -92.3562 1194.84 -98.1987 1188.62 -103.425ZM1004.06 -53.7598C1006.38 -47.4285 1007.72 -42.2395 1007.72 -38.6331C1007.72 -37.7825 1007.64 -37.0198 1007.49 -36.3508C1006.36 -31.459 1002.72 -28.8459 997.68 -27.416C1002.21 -29.1729 1005.56 -32.074 1006.79 -36.9749C1007 -37.8057 1007.1 -38.7561 1007.1 -39.8186C1007.1 -43.333 1006 -48.0723 1004.06 -53.7598ZM1072.49 55.0962C1057.89 59.5352 1045.48 55.2681 1032.33 50.748C1024.31 47.9861 1016 45.1311 1006.66 44C999.858 43.1716 995.787 46.075 993.088 48L993.073 48.0112C991.815 48.9082 990.724 49.677 990.132 49.4861C989.615 49.3162 988.74 48.322 987.507 44.5552C984.855 36.4482 982.508 35.405 978.247 34.1292C975.771 33.3882 972.688 32.4651 968.389 28.9412C961.286 23.1172 952.094 20.813 943.205 18.584C933.268 16.092 923.882 13.738 917.133 6.90601C914.727 4.47021 910.55 -0.921875 909.003 -10.0649C909.208 -10.1138 909.415 -10.1738 909.619 -10.2429C910.571 -10.177 911.523 -10.2219 912.427 -10.4919C913.357 -10.3809 914.26 -10.4109 915.122 -10.636C916.526 -10.4119 917.865 -10.4849 919.062 -11.125C921.014 -10.4399 922.816 -10.2219 924.369 -10.9558C924.415 -10.9778 924.456 -11.0078 924.5 -11.0308C926.068 -10.4138 927.513 -10.1338 928.789 -10.3838C930.078 -10.0469 931.255 -10.0178 932.281 -10.4358C932.396 -10.4829 932.504 -10.5449 932.614 -10.6028C934.212 -9.896 935.656 -9.56689 936.885 -9.79102C937.855 -9.50195 938.747 -9.40894 939.546 -9.55396C940.538 -9.24585 941.437 -9.15479 942.24 -9.30493C943.233 -8.98682 944.129 -8.88794 944.921 -9.03784C946.107 -8.64795 947.16 -8.5498 948.039 -8.854C949.254 -9.27393 950.034 -10.3259 950.357 -11.9819C952.396 -22.4399 965.879 -22.5339 980.154 -22.6338C994.609 -22.7349 1009.55 -22.8398 1012.09 -34.833C1012.25 -35.5569 1012.32 -36.3696 1012.32 -37.2661C1012.32 -51.9797 992.256 -89.2817 971.081 -128.645L971.072 -128.663C959.486 -150.2 947.712 -172.091 939.375 -190.087C954.567 -188.327 982.365 -177.886 1005.3 -169.264C1018.85 -164.172 1030.54 -159.775 1037.09 -158.132C1043.9 -156.418 1049.07 -163.247 1055.04 -171.151L1055.05 -171.156C1064.73 -183.968 1076.79 -199.912 1102.22 -193.514C1115.64 -190.139 1118.65 -173.625 1118.65 -155.264C1118.65 -147.313 1118.08 -139.016 1117.56 -131.29L1117.56 -131.288L1117.56 -131.285C1117.1 -124.484 1116.66 -118.091 1116.66 -112.652C1116.66 -105.721 1117.37 -100.341 1119.62 -97.6379C1122.49 -94.179 1126.72 -97.5029 1132.07 -101.716C1143.5 -110.725 1160.78 -124.336 1187.33 -101.896C1193.15 -97.0051 1195.99 -91.8223 1195.99 -86.0732C1195.99 -85.832 1195.99 -85.5901 1195.98 -85.3469C1195.25 -67.5918 1167.92 -48.2349 1143.81 -31.158C1124.84 -17.719 1108.46 -6.11182 1107.83 2.78223C1107.82 2.96191 1107.81 3.14038 1107.81 3.31714C1107.81 5.3623 1108.66 7.19653 1110.33 8.77515C1113.15 11.4441 1116.3 12.5981 1119.72 12.5981C1129.87 12.5962 1142.34 2.39307 1155.39 -8.58301C1156.4 -9.40479 1157.41 -10.2319 1158.43 -11.062C1158.63 -11.2268 1158.84 -11.3918 1159.04 -11.5569C1159.38 -11.8298 1159.73 -12.1018 1160.07 -12.376C1161.03 -13.1389 1162 -13.907 1162.97 -14.6748C1165.48 -16.6199 1168.03 -18.5818 1170.59 -20.52C1175.43 -24.0669 1180.34 -27.604 1185.23 -30.927C1185.41 -31.054 1185.6 -31.179 1185.79 -31.3049C1192.68 -35.054 1199.45 -37.2178 1205.92 -36.5818C1212.43 -35.9448 1218.08 -32.5308 1223.2 -26.146C1227.21 -21.1448 1228.83 -16.1157 1228.83 -11.1228C1228.83 0.310059 1220.33 11.5542 1212.55 21.843C1205.71 30.895 1199.19 39.5188 1199.19 47.2754C1199.19 48.074 1199.26 48.8633 1199.41 49.6431C1171.22 55.73 1141.64 60.4221 1123.16 60.4221L1122.96 60.4221C1116.2 60.4102 1109.29 58.7051 1102.61 57.0571L1102.61 57.0564C1092.68 54.6064 1082.41 52.0735 1072.49 55.0962ZM1000.08 46.4841C1001.84 45.9451 1003.91 45.6821 1006.42 45.9851C1015.55 47.0911 1023.75 49.9121 1031.68 52.6392C1035.16 53.834 1038.58 55.0071 1042.01 56.0181C1038.07 55.04 1034.14 53.8162 1030.14 52.5701C1022.05 50.0452 1013.68 47.4351 1004.21 46.4722C1002.7 46.3181 1001.34 46.343 1000.08 46.4841ZM1004 48.4612C1013.28 49.4041 1021.55 51.9841 1029.55 54.479C1032.57 55.4211 1035.55 56.3452 1038.53 57.1692C1035.02 56.354 1031.51 55.3772 1027.95 54.3801C1019.79 52.0962 1011.36 49.7332 1001.75 48.9392C1000.26 48.8171 998.91 48.8582 997.661 49.0051C999.431 48.48 1001.51 48.208 1004 48.4612ZM939.155 21.1211C947.88 24.1211 956.904 27.2222 963.53 32.6692C968.208 36.5271 971.661 37.5232 974.432 38.3252C978.208 39.415 980.288 40.0161 982.83 47.4331C984.117 51.228 985.25 53.0352 986.703 53.6182C985.951 54.0251 985.331 54.2441 984.872 54.0862C984 53.7822 983.041 52.124 981.94 49.0181C978.983 40.6782 975.788 39.79 971.744 38.666C968.879 37.8701 965.634 36.968 961.214 33.3052C955.101 28.2612 946.919 24.5251 938.796 20.998C938.916 21.0391 939.036 21.0801 939.155 21.1211ZM904.041 -9.93384C904.201 -9.92896 904.362 -9.92383 904.525 -9.91699C904.791 -4.71191 906.269 0.356201 909.972 4.95508C909.555 4.55322 909.148 4.14502 908.758 3.72705C905.148 -0.14917 903.908 -3.78296 903.908 -7.64893C903.908 -8.40063 903.955 -9.16113 904.041 -9.93384ZM912.945 5.31812C908.572 0.76001 906.792 -4.21582 906.516 -9.83179C906.682 -9.83081 906.849 -9.83301 907.016 -9.83594C908.299 -2.15088 911.357 3.06714 913.857 6.21118C913.549 5.91699 913.24 5.625 912.945 5.31812ZM987.492 51.791C986.687 51.5181 985.755 49.8362 984.724 46.7881C981.842 38.3831 978.967 37.5532 974.988 36.4031C972.391 35.6531 969.161 34.7202 964.8 31.126C959.378 26.667 952.54 23.7612 945.547 21.238C953.312 23.2261 961.096 25.5481 967.122 30.488C971.729 34.2661 975.026 35.2532 977.674 36.0452C981.208 37.104 983.156 37.686 985.607 45.177C986.809 48.8521 987.88 50.647 989.236 51.2622C988.504 51.6941 987.909 51.936 987.492 51.791ZM1001.35 -55.4768C1003.73 -48.9739 1005.11 -43.6414 1005.11 -39.9341C1005.11 -39.0049 1005.03 -38.1777 1004.85 -37.46C1003.64 -32.606 999.922 -29.9939 994.833 -28.5349C999.411 -30.3079 1002.83 -33.1958 1004.14 -38.0469C1004.38 -38.9333 1004.49 -39.9573 1004.49 -41.1096C1004.49 -44.7307 1003.35 -49.6182 1001.35 -55.4768ZM1119.24 63.7761L1119.13 63.7761C1112.03 63.7761 1105.09 61.5391 1098.38 59.374C1094.17 58.0181 1089.9 56.647 1085.58 55.8281C1090.97 56.2441 1096.46 57.5991 1102.13 58.998C1108.93 60.675 1115.95 62.4092 1122.96 62.4221L1123.13 62.4221C1141.11 62.4221 1172.44 57.354 1199.93 51.5352C1199.95 51.5901 1199.97 51.645 1199.99 51.7002C1171.52 57.978 1137.86 63.7122 1119.24 63.7761ZM1206.82 40.7202C1207.49 42.9951 1208.89 45.0891 1211.02 47.0371C1210.24 47.2192 1209.45 47.4011 1208.66 47.582C1207.58 46.3181 1206.82 45.001 1206.39 43.6201C1206.11 42.6902 1205.98 41.7346 1205.98 40.7561C1205.98 39.7639 1206.11 38.7478 1206.37 37.7102C1206.39 38.7261 1206.53 39.73 1206.82 40.7202ZM1128.8 -107.686C1129.81 -106.588 1131 -106.334 1132.38 -106.665C1129.53 -104.595 1127.68 -103.79 1126.62 -104.985C1124.7 -107.167 1124.06 -112.052 1124.06 -118.371C1124.06 -124.386 1124.64 -131.7 1125.23 -139.218C1125.94 -148.107 1126.69 -157.685 1126.69 -166.789C1126.69 -186.376 1123.19 -203.764 1108.11 -207.347C1088.65 -211.967 1076.38 -204.33 1067.51 -194.504C1076.38 -206.868 1088.97 -218.438 1111.26 -213.333C1125.32 -210.114 1128.74 -193.532 1128.74 -174.454C1128.74 -164.731 1127.85 -154.36 1127.03 -144.779L1127.03 -144.772L1127.03 -144.759C1126.3 -136.203 1125.64 -128.503 1125.64 -122.253C1125.64 -115.386 1126.43 -110.268 1128.8 -107.686ZM998.8 -56.7388C1001.15 -50.271 1002.51 -44.9478 1002.51 -41.2246C1002.51 -40.2195 1002.41 -39.3308 1002.2 -38.5679C1000.91 -33.761 997.138 -31.1499 992.017 -29.658C996.622 -31.448 1000.09 -34.323 1001.48 -39.1118C1001.76 -40.0562 1001.89 -41.1577 1001.89 -42.4053C1001.89 -46.0396 1000.77 -50.9121 998.8 -56.7388ZM915.034 -16.499C914.914 -16.105 914.789 -15.7419 914.656 -15.4128C914.547 -15.4709 914.44 -15.5278 914.332 -15.585C914.287 -15.6089 914.244 -15.6328 914.198 -15.657C914.321 -16.0188 914.441 -16.3928 914.55 -16.802C914.711 -16.7019 914.872 -16.6008 915.034 -16.499ZM898.054 -4.74878C898.399 -5.20801 898.648 -5.76489 898.851 -6.36597C898.84 -6.17334 898.835 -5.98047 898.835 -5.78662C898.835 -3.16919 899.805 -0.4375 902.445 2.71606C901.719 2 901.021 1.28003 900.386 0.555176C898.912 -1.12695 898.052 -2.48999 897.661 -3.6958C897.821 -4.01782 897.948 -4.37183 898.054 -4.74878ZM1205.13 52.6912C1204.42 52.8591 1203.71 53.0261 1202.99 53.1931C1202.97 53.1611 1202.95 53.1292 1202.93 53.0972C1203.64 52.937 1204.35 52.7771 1205.06 52.6172C1205.08 52.6421 1205.1 52.667 1205.13 52.6912ZM1211.52 33.7842C1212.61 37.7781 1216.03 41.2632 1222.01 44.3911C1219.2 45.0901 1216.35 45.7832 1213.45 46.467C1210.97 44.5042 1209.4 42.4041 1208.74 40.1531C1208.48 39.2861 1208.36 38.3982 1208.36 37.4905C1208.36 34.6802 1209.52 31.6821 1211.4 28.5452C1211.23 29.365 1211.14 30.179 1211.14 30.9863C1211.14 31.9277 1211.26 32.8604 1211.52 33.7842ZM1130.82 -150.163C1129.98 -141.031 1129.23 -132.835 1129.23 -126.259C1129.23 -119.36 1130.06 -114.244 1132.48 -111.701C1133.43 -110.705 1134.57 -110.473 1135.88 -110.777C1133.27 -108.891 1131.29 -107.936 1130.28 -109.038C1128.32 -111.171 1127.66 -116.006 1127.66 -122.309C1127.66 -128.669 1128.33 -136.523 1129.02 -144.602L1129.02 -144.604C1129.85 -154.222 1130.74 -164.615 1130.74 -174.414C1130.74 -194.316 1127.07 -211.766 1111.71 -215.282C1092.36 -219.716 1080.06 -212.3 1071.18 -202.367C1080.05 -214.963 1092.71 -226.16 1114.88 -221.257C1129.22 -218.089 1132.79 -201.416 1132.79 -182.023C1132.79 -171.631 1131.76 -160.458 1130.82 -150.163ZM965.198 -28.2559C978.682 -29.4309 992.628 -30.646 996.175 -41.2539C996.528 -42.3108 996.697 -43.5696 996.697 -45.0134C996.697 -59.3198 980.138 -91.7974 962.701 -126L962.695 -126.012C951.136 -148.681 939.349 -171.809 933.062 -188.624C940.081 -171.406 951.684 -149.091 963.662 -126.058C981.505 -91.7498 999.911 -56.3574 999.911 -42.5171C999.911 -41.4324 999.798 -40.48 999.562 -39.6709C996.739 -29.9609 983.775 -29.1819 970.05 -28.356C956.07 -27.5159 941.628 -26.647 938.525 -15.2869C937.688 -15.9358 936.833 -16.6218 935.971 -17.333C939.687 -26.0278 952.107 -27.116 965.198 -28.2559ZM974.373 63.3191C973.264 62.894 972.128 61.188 970.797 57.9502C967.471 49.8511 963.43 48.8621 958.75 47.717C955.353 46.885 951.5 45.9421 946.865 42.0432C942.128 38.0591 935.539 33.166 928.562 27.9851C916.299 18.8772 902.591 8.68921 894.606 0.282227C895.437 -0.0739746 896.066 -0.646973 896.536 -1.38477C897.083 -0.385986 897.846 0.690186 898.883 1.87402C905.863 9.83813 918.171 17.1821 930.075 24.2832C938.718 29.4402 946.88 34.311 952.758 39.2122C957.633 43.2771 961.572 44.3022 964.737 45.126C968.946 46.2212 971.726 46.9441 974.5 54.2002C976.001 58.125 977.286 59.9722 978.927 60.5762C980.671 61.2129 982.327 60.304 984.427 59.1516L984.43 59.1501L984.458 59.1343C987.175 57.6436 990.882 55.6091 996.755 55.8811C1006.46 56.322 1014.93 58.1582 1023.12 59.9331C1031.54 61.7551 1039.66 63.5022 1048.24 63.4761C1038.35 64.4851 1029.27 63.1011 1019.13 61.5432C1010.74 60.2551 1002.07 58.9241 991.94 58.8281C991.853 58.8281 991.766 58.8271 991.682 58.8271C985.607 58.8271 981.655 60.7261 978.758 62.1172C976.818 63.0481 975.42 63.718 974.373 63.3191ZM1204.39 54.9741L1204.35 54.9302C1205.13 54.7461 1205.91 54.563 1206.68 54.3792C1206.73 54.3691 1206.78 54.3572 1206.82 54.3462C1206.83 54.355 1206.84 54.364 1206.85 54.373C1206.04 54.572 1205.22 54.772 1204.39 54.9741ZM1216.23 26.917C1217.61 32.3811 1223.62 36.9661 1234.87 41.041C1231.69 41.906 1228.4 42.7732 1225.02 43.634C1218.31 40.521 1214.49 37.0852 1213.44 33.2561C1213.24 32.5078 1213.14 31.7449 1213.14 30.968C1213.14 28.3452 1214.25 25.5652 1216.08 22.665C1215.98 23.2744 1215.93 23.8809 1215.93 24.4844C1215.93 25.3008 1216.02 26.1118 1216.23 26.917ZM991.145 -60.6318C993.402 -54.2236 994.722 -48.8997 994.722 -45.1135C994.722 -43.8665 994.579 -42.7861 994.279 -41.8889C992.693 -37.1479 988.655 -34.5288 983.313 -32.9409C988.122 -34.7859 991.852 -37.636 993.526 -42.323C993.923 -43.4319 994.111 -44.7671 994.111 -46.3081C994.111 -49.998 993.032 -54.8672 991.145 -60.6318ZM1218.58 23.501C1220.06 29.5952 1227.47 34.6401 1241.68 39.1372C1240.56 39.459 1239.43 39.781 1238.27 40.104C1226.07 36.0652 1219.46 31.562 1218.16 26.427C1218 25.7876 1217.93 25.1377 1217.93 24.478C1217.93 23.5901 1218.07 22.6846 1218.33 21.7642C1218.36 22.343 1218.44 22.9221 1218.58 23.501ZM1136.49 -158.247C1135.49 -148.279 1134.59 -139.364 1134.59 -132.324C1134.59 -125.349 1135.47 -120.216 1137.99 -117.727C1138.87 -116.867 1139.88 -116.631 1141.06 -116.874C1138.57 -115.055 1136.68 -114.146 1135.75 -115.105C1133.73 -117.176 1133.04 -121.972 1133.04 -128.289C1133.04 -135.135 1133.85 -143.769 1134.7 -152.659L1134.7 -152.669C1135.71 -163.355 1136.81 -174.947 1136.81 -185.753C1136.81 -206.148 1132.9 -223.745 1117.11 -227.175C1097.78 -231.375 1085.38 -224.16 1076.47 -214.045C1085.36 -226.972 1098.18 -237.794 1120.3 -233.145C1135.07 -230.042 1138.86 -213.191 1138.86 -193.307C1138.86 -181.945 1137.63 -169.592 1136.49 -158.248L1136.49 -158.247ZM958.677 -124.383C948.776 -144.485 938.676 -164.99 933.099 -180.289C939.337 -164.688 949.297 -144.941 959.562 -124.588C975.603 -92.7847 992.141 -59.9951 992.141 -46.4272C992.141 -45.0906 991.981 -43.9402 991.644 -42.9958C988.359 -33.804 975.809 -32.5388 962.521 -31.2C950.146 -29.9529 937.417 -28.6628 932.459 -20.291C931.759 -20.8928 931.068 -21.49 930.393 -22.074C935.573 -28.2869 946.422 -29.6838 957.778 -31.1399C970.76 -32.8049 984.188 -34.5259 988.216 -44.4619C988.712 -45.6868 988.947 -47.1941 988.947 -48.9556C988.947 -62.9294 974.194 -92.8806 958.677 -124.383ZM1223.3 16.769C1224.9 23.8931 1235.11 29.6821 1255.38 34.9221C1252.26 35.9602 1248.84 37.0281 1245.2 38.1091C1230.01 33.6611 1221.91 28.709 1220.53 23.0291C1220.38 22.4304 1220.31 21.823 1220.31 21.2078C1220.31 18.9836 1221.23 16.6541 1222.77 14.239C1222.89 14.1172 1223 13.9941 1223.11 13.8721C1223.09 14.1609 1223.07 14.4497 1223.07 14.7385C1223.07 15.4153 1223.15 16.092 1223.3 16.769ZM956.045 -123.185C947.184 -141.666 938.156 -160.503 933.061 -174.803C938.776 -160.267 947.693 -142.156 956.882 -123.499C971.704 -93.408 986.979 -62.3965 986.979 -49.0552C986.979 -47.5366 986.781 -46.2471 986.363 -45.2139C982.774 -36.3608 970.508 -34.7888 957.523 -33.124C946.214 -31.6729 934.607 -30.1829 928.875 -23.3838C928.266 -23.9099 927.663 -24.429 927.068 -24.937C932.74 -29.9519 942.591 -31.4929 952.853 -33.094C965.493 -35.0659 978.562 -37.105 982.901 -46.5959C983.512 -47.9329 983.797 -49.6169 983.797 -51.6077C983.797 -65.3052 970.266 -93.5266 956.045 -123.185ZM961.583 75.0251C960.067 74.54 958.613 72.718 956.872 69.1191C953.083 61.2891 947.979 60.1941 942.575 59.0361C938.266 58.113 933.812 57.1592 928.929 52.9651C916.591 42.373 886.302 9.37915 874.096 -6.4519C876.167 -5.26489 878.249 -4.1228 880.274 -3.11084C892.453 11.6621 921.771 39.0151 934.809 50.1172C939.972 54.5132 944.556 55.5461 948.599 56.457C953.535 57.5681 957.432 58.446 960.625 65.4761C964.431 73.8572 967.196 73.2102 972.596 71.083C975.538 69.9241 979.201 68.4822 984.672 68.2451C995.052 67.8022 1003.83 68.3232 1012.31 68.8271C1019.39 69.248 1025.95 69.6311 1032.62 69.417C1024.4 70.2751 1016.53 70.3032 1007.85 70.3301C999.257 70.3562 990.368 70.384 979.681 71.197C974.219 71.6172 970.286 72.98 967.413 73.9751C964.872 74.855 963.036 75.488 961.583 75.0251ZM1171.82 79.6541C1140.85 87.6992 1101.08 96.2822 1082.01 97.322C1073.51 97.791 1069.12 90.2041 1064.48 82.1772C1060.55 75.3821 1056.51 68.4141 1049.71 67.3291C1049.95 67.2771 1050.18 67.2332 1050.41 67.1792C1058.82 65.2578 1063.87 71.8394 1069.22 78.8044L1069.22 78.812C1074.44 85.6072 1079.83 92.6272 1088.77 92.6272C1089.03 92.6272 1089.29 92.6211 1089.55 92.6091C1109.1 91.7402 1148.93 83.436 1179.73 75.592C1194.32 71.876 1207.28 68.196 1217.68 64.822C1218.24 65.0222 1218.83 65.2192 1219.42 65.4141C1209.46 69.0771 1194.08 73.8691 1171.82 79.6541ZM1225.67 13.3691C1227.27 20.7991 1238.52 26.8381 1261.06 32.375C1261.38 32.4551 1261.67 32.5381 1261.93 32.6221C1260.93 32.9941 1259.89 33.3711 1258.8 33.7532C1258.55 33.6782 1258.31 33.6021 1258.04 33.5342C1237.43 28.4211 1226.7 22.793 1225.25 16.3301C1225.13 15.8159 1225.08 15.2959 1225.08 14.77C1225.08 13.9119 1225.23 13.0383 1225.5 12.1511C1225.54 12.5571 1225.58 12.9622 1225.67 13.3691ZM978.526 -67.1108C980.606 -60.853 981.834 -55.5669 981.834 -51.6951C981.834 -49.9834 981.594 -48.5483 981.082 -47.428C978.95 -42.7629 974.38 -40.0999 968.609 -38.314C973.813 -40.282 978.044 -43.1199 980.247 -47.668C980.922 -49.0615 981.236 -50.8376 981.236 -52.9495C981.236 -56.6997 980.245 -61.5081 978.526 -67.1108ZM890.523 -7.02686C892.321 -6.8418 894.093 -6.83594 895.698 -7.15381C895.635 -6.9458 895.586 -6.73486 895.542 -6.52197C894.129 -6.01978 892.237 -6.09277 890.12 -6.51685C890.193 -6.69482 890.327 -6.86499 890.523 -7.02686ZM975.914 -68.74C978.02 -62.3745 979.272 -56.979 979.272 -53.0229C979.272 -51.2119 979.01 -49.7026 978.447 -48.5398C976.203 -43.9048 971.55 -41.228 965.716 -39.396C970.973 -41.3928 975.28 -44.2319 977.587 -48.7339C978.329 -50.1812 978.672 -52.0493 978.672 -54.2827C978.672 -58.1184 977.659 -63.0315 975.914 -68.74ZM1230.41 6.61621C1231.89 14.1372 1243.86 20.3582 1268.06 26.1941C1270.64 26.8188 1271.55 27.5596 1271.55 28.0229C1271.55 28.0366 1271.55 28.05 1271.55 28.063C1271.53 28.209 1271.46 28.3672 1271.38 28.531C1270.77 28.8611 1270.09 29.2031 1269.35 29.551C1268.35 28.1521 1265.97 27.5701 1265.03 27.3401C1242.81 21.9331 1231.35 16.124 1230 9.58105C1229.91 9.14404 1229.87 8.70288 1229.87 8.25806C1229.87 7.73682 1229.92 7.21045 1230.04 6.6792C1230.15 6.56812 1230.25 6.45605 1230.36 6.34521C1230.38 6.43506 1230.39 6.52515 1230.41 6.61621ZM1172.24 -26.5059C1215.7 -54.0588 1269.79 -88.3499 1284.02 -69.95C1287.32 -65.6731 1288.99 -61.3013 1288.99 -56.9187C1288.99 -56.0393 1288.92 -55.1594 1288.79 -54.2798C1287.51 -45.907 1280.29 -38.313 1271.57 -31.3518C1270.08 -30.0059 1268.52 -28.6829 1266.92 -27.3809C1265.51 -26.0989 1264.05 -24.8359 1262.55 -23.5918C1261 -22.1599 1259.38 -20.7478 1257.72 -19.354C1255.27 -17.0669 1252.67 -14.8289 1250.04 -12.637C1247.82 -10.416 1245.48 -8.23877 1243.12 -6.104C1240.73 -3.77197 1238.28 -1.48779 1235.87 0.75C1235.59 1.01001 1235.31 1.26904 1235.03 1.52905C1234.91 1.65918 1234.78 1.78809 1234.66 1.91821C1234.67 2.24023 1234.69 2.56006 1234.75 2.8772C1236 9.479 1248.2 15.458 1272.02 21.156C1273.35 21.4734 1277.3 22.4167 1277.3 25.0161C1277.3 25.1196 1277.29 25.2261 1277.28 25.3352C1277.1 26.7861 1275.44 28.3491 1272.72 29.9602C1271.96 30.896 1270.7 31.8672 1269.02 32.8601C1268.27 33.791 1267.01 34.76 1265.34 35.7522C1264.6 36.6812 1263.34 37.6521 1261.66 38.6492C1260.55 40.0742 1258.15 41.6101 1254.89 43.1921C1254.69 44.458 1253.13 45.865 1250.61 47.3491C1249.58 48.7151 1247.22 50.2561 1243.8 51.917C1243.8 51.9236 1243.8 51.9302 1243.8 51.9365C1243.8 51.9463 1243.8 51.9561 1243.8 51.9658C1243.8 51.9756 1243.8 51.9854 1243.8 51.9954C1243.8 52.0034 1243.8 52.0117 1243.8 52.02C1243.66 53.2561 1242.5 54.9712 1236.43 57.8091C1236.43 57.8157 1236.43 57.8223 1236.43 57.8289C1236.43 57.8457 1236.43 57.8623 1236.43 57.8789C1236.43 57.8958 1236.43 57.9124 1236.43 57.9292C1236.43 57.9453 1236.43 57.9614 1236.43 57.978C1236.36 58.6272 1236.23 59.7791 1232.45 61.926C1232.06 62.6091 1231.09 63.5662 1228.66 64.9221C1228.08 65.75 1226.9 66.6582 1225.25 67.624C1224.64 68.9902 1221.64 71.6892 1205.25 77.4072C1194.02 81.3252 1178.14 86.0691 1160.53 90.7661C1129.27 99.1062 1089.46 108.096 1070.99 109.38C1070.66 109.403 1070.33 109.414 1070.01 109.414C1060.57 109.414 1056.84 99.4421 1053.22 89.7871C1049.65 80.251 1046.27 71.2422 1037.83 72.8271C1024.74 75.2832 1013.47 76.3672 1000.42 77.623C992.352 78.3992 983.205 79.28 972.581 80.603C967.943 81.1841 964.452 82.2021 961.646 83.019C954.967 84.9661 951.614 85.9431 946.749 76.7522C943.129 69.9092 938.207 68.925 932.508 67.7852C927.714 66.8262 922.282 65.739 916.859 61.0251C903.589 49.488 865.119 -0.689941 856.823 -14.25C856.523 -14.739 856 -15.5925 856 -16.376C856 -16.731 856.107 -17.0718 856.391 -17.3579C857.154 -18.125 858.399 -17.856 861.271 -16.3149C862.101 -16.45 863.375 -16.0029 865.493 -14.9438C866.351 -15.0469 867.659 -14.6079 869.812 -13.6179C871.122 -13.6699 873.331 -12.77 877.398 -11.0278C877.399 -11.0269 877.401 -11.0269 877.401 -11.0259C878.615 -11.5098 880.708 -11.0339 883.758 -10.325C884.703 -10.105 885.724 -9.8689 886.776 -9.65186C887.692 -9.87598 888.787 -9.99585 890.009 -10.1189C891.161 -10.2358 892.383 -10.3599 893.589 -10.5808C895.822 -11.408 898.287 -12.4338 900.143 -14.4978C900.515 -15.7148 901.028 -16.6709 901.682 -17.3848C901.687 -17.407 901.695 -17.4248 901.7 -17.4468C901.95 -18.564 902.326 -19.4858 902.818 -20.2168C903.151 -21.2859 903.635 -22.1208 904.257 -22.7329C904.316 -22.959 904.385 -23.1699 904.438 -23.4038C904.661 -24.3828 905.005 -25.1858 905.466 -25.8108C905.679 -26.562 905.972 -27.198 906.354 -27.7019C906.562 -28.4548 906.854 -29.0879 907.24 -29.584C907.442 -30.3479 907.735 -30.9829 908.13 -31.4758C908.521 -33.033 909.328 -34.0259 910.537 -34.4209C912.943 -35.2048 916.473 -33.3079 920.693 -30.1318C927.015 -34.4619 936.171 -36.2808 945.141 -38.0598C957.328 -40.4758 968.838 -42.7578 973.174 -50.7559C973.853 -52.0093 974.167 -53.6829 974.167 -55.7153C974.167 -68.321 962.097 -94.7356 950.369 -120.402L950.362 -120.418C938.472 -146.434 927.15 -171.22 927.15 -183.731C927.15 -184.046 927.157 -184.354 927.172 -184.653C927.11 -185.382 927.077 -186.08 927.077 -186.742C927.077 -187.065 927.084 -187.378 927.101 -187.683C927.043 -188.378 927.014 -189.043 927.014 -189.676C927.014 -189.973 927.02 -190.262 927.034 -190.545C926.971 -191.267 926.939 -191.956 926.939 -192.61C926.939 -193.376 926.983 -194.095 927.073 -194.764C926.883 -196.108 926.784 -197.353 926.784 -198.491C926.784 -199.217 926.824 -199.899 926.906 -200.536C926.706 -201.907 926.606 -203.169 926.606 -204.324C926.606 -204.556 926.61 -204.784 926.619 -205.008C926.542 -205.791 926.504 -206.533 926.504 -207.234C926.504 -207.944 926.543 -208.611 926.622 -209.236C926.411 -210.645 926.3 -211.943 926.3 -213.123C926.3 -213.358 926.305 -213.588 926.313 -213.813C926.234 -214.62 926.192 -215.387 926.192 -216.107C926.192 -216.333 926.196 -216.555 926.205 -216.772C926.129 -217.578 926.083 -218.35 926.083 -219.072C926.083 -219.281 926.086 -219.486 926.094 -219.686C926.02 -220.479 925.977 -221.236 925.977 -221.946C925.977 -222.167 925.981 -222.384 925.99 -222.596C925.914 -223.38 925.876 -224.125 925.876 -224.828C925.876 -226.659 926.139 -228.204 926.708 -229.417C927.538 -231.183 928.943 -232.277 930.885 -232.67C945.245 -235.575 987.359 -219.11 1021.2 -205.879C1036.9 -199.743 1050.45 -194.443 1057.12 -192.769C1060.93 -191.816 1064.13 -196.899 1067.75 -204.262C1067.77 -204.311 1067.8 -204.361 1067.82 -204.411C1068.65 -206.089 1069.49 -207.882 1070.37 -209.749C1079.39 -228.901 1093.03 -257.843 1127.93 -250.965C1144.61 -247.676 1148.98 -229.65 1148.98 -208.208C1148.98 -195.489 1147.44 -181.568 1146.03 -168.809L1146.03 -168.808C1144.88 -158.353 1143.76 -148.215 1143.76 -140.459C1143.76 -134.015 1144.54 -129.216 1146.7 -127.245C1148.1 -125.976 1152.67 -129.859 1157.51 -133.978L1157.51 -133.979C1172.77 -146.967 1201.17 -171.142 1238.44 -140.264C1246.68 -133.433 1250.85 -125.662 1250.85 -117.141C1250.85 -116.587 1250.84 -116.03 1250.8 -115.47C1248.89 -85.0498 1196.51 -51.7529 1158.27 -27.4419C1139.97 -15.8059 1124.16 -5.75684 1123.3 -1.43994C1123.28 -1.34229 1123.27 -1.25684 1123.27 -1.18164C1123.27 -0.966064 1123.34 -0.834961 1123.41 -0.740967C1123.87 -0.0749512 1126.29 0.749023 1138.58 -5.95288C1147.46 -10.793 1159.5 -18.4248 1172.24 -26.5059Z" clip-rule="evenodd" fill="url(#paint_linear_0_625_0)" fill-opacity="1.000000" fill-rule="evenodd"/>
	</g>
</svg>
