<svg width="152.000000" height="152.000000" viewBox="0 0 152 152" fill="none" xmlns="http://www.w3.org/2000/svg" xmlns:xlink="http://www.w3.org/1999/xlink">
	<desc>
			Created with Pixso.
	</desc>
	<defs>
		<filter id="filter_0_87_dd" x="0.000000" y="0.000000" width="152.000000" height="152.000000" filterUnits="userSpaceOnUse" color-interpolation-filters="sRGB">
			<feFlood flood-opacity="0" result="BackgroundImageFix"/>
			<feColorMatrix in="SourceAlpha" type="matrix" values="0 0 0 0 0 0 0 0 0 0 0 0 0 0 0 0 0 0 127 0" result="hardAlpha"/>
			<feOffset dx="0" dy="16"/>
			<feGaussianBlur stdDeviation="10.6667"/>
			<feComposite in2="hardAlpha" operator="out" k2="-1" k3="1"/>
			<feColorMatrix type="matrix" values="0 0 0 0 0.082353 0 0 0 0 0.090196 0 0 0 0 0.098039 0 0 0 0.24 0"/>
			<feBlend mode="normal" in2="BackgroundImageFix" result="effect_dropShadow_1"/>
			<feBlend mode="normal" in="SourceGraphic" in2="effect_dropShadow_1" result="shape"/>
		</filter>
		<filter id="filter_0_88_dd" x="40.000000" y="36.000000" width="76.000000" height="79.999146" filterUnits="userSpaceOnUse" color-interpolation-filters="sRGB">
			<feFlood flood-opacity="0" result="BackgroundImageFix"/>
			<feColorMatrix in="SourceAlpha" type="matrix" values="0 0 0 0 0 0 0 0 0 0 0 0 0 0 0 0 0 0 127 0" result="hardAlpha"/>
			<feOffset dx="0" dy="16"/>
			<feGaussianBlur stdDeviation="10.6667"/>
			<feComposite in2="hardAlpha" operator="out" k2="-1" k3="1"/>
			<feColorMatrix type="matrix" values="0 0 0 0 0.062745 0 0 0 0 0.086275 0 0 0 0 0.2549 0 0 0 0.24 0"/>
			<feBlend mode="normal" in2="BackgroundImageFix" result="effect_dropShadow_1"/>
			<feBlend mode="normal" in="SourceGraphic" in2="effect_dropShadow_1" result="shape"/>
		</filter>
		<linearGradient x1="65.165436" y1="0.722458" x2="17.878334" y2="71.968948" id="paint_linear_0_87_0" gradientUnits="userSpaceOnUse">
			<stop stop-color="#EBF1F5" stop-opacity="0.800000"/>
			<stop offset="1.000000" stop-color="#EBF1F5"/>
		</linearGradient>
	</defs>
	<g filter="url(#filter_0_87_dd)">
		<circle id="Combined Shape" cx="76.000000" cy="60.000000" r="44.000000" fill="url(#paint_linear_0_87_0)" fill-opacity="1.000000"/>
		<circle id="Combined Shape" cx="76.000000" cy="60.000000" r="44.000000" stroke="#979797" stroke-opacity="0" stroke-width="0.000000"/>
	</g>
	<g filter="url(#filter_0_88_dd)">
		<path id="Path" d="M84 59.99C84 59.67 83.84 59.36 83.57 59.18L73.57 52.18C73.26 51.96 72.86 51.94 72.53 52.11C72.2 52.28 72 52.62 72 52.99L72 67C72 67.37 72.2 67.71 72.53 67.88C72.86 68.05 73.26 68.03 73.57 67.81L83.57 60.81C83.84 60.63 84 60.32 84 60C84 60 84 60 84 59.99Z" fill="#5D5DFF" fill-opacity="1.000000" fill-rule="evenodd"/>
		<path id="Path" d="M83.57 59.18L73.57 52.18C73.26 51.96 72.86 51.94 72.53 52.11C72.2 52.28 72 52.62 72 52.99L72 67C72 67.37 72.2 67.71 72.53 67.88C72.86 68.05 73.26 68.03 73.57 67.81L83.57 60.81C83.84 60.63 84 60.32 84 60C84 60 84 60 84 59.99C84 59.67 83.84 59.36 83.57 59.18Z" stroke="#979797" stroke-opacity="0" stroke-width="0.000000"/>
	</g>
</svg>
